<?xml version="1.0" encoding="utf-8"?>
<!-- Generator: Adobe Illustrator 22.0.1, SVG Export Plug-In . SVG Version: 6.00 Build 0)  -->
<svg version="1.1" xmlns="http://www.w3.org/2000/svg" xmlns:xlink="http://www.w3.org/1999/xlink" x="0px" y="0px"
	 viewBox="0 0 512 512" style="enable-background:new 0 0 512 512;" xml:space="preserve">
<style type="text/css">
	.st0{fill:#9AC6D1;}
	.st1{fill:#A58BFA;}
	.st2{fill:#A5E1FD;}
	.st3{fill:#E799EA;}
	.st4{fill:#E194AD;}
	.st5{fill:#D0FCC4;}
	.st6{fill:#EEC0C5;}
	.st7{fill:#A7D4F1;}
	.st8{fill:#78B8EA;}
	.st9{fill:#A198FB;}
	.st10{fill:#ECBFFB;}
	.st11{fill:#EFC7DA;}
	.st12{fill:#85B4FB;}
	.st13{fill:#EDFFAA;}
	.st14{fill:#C9A8FB;}
	.st15{fill:#E9A8A8;}
	.st16{fill:#88ADB7;}
	.st17{fill:#C4F8D6;}
	.st18{fill:#A35561;}
	.st19{fill:#C0E0DC;}
	.st20{fill:#D3FAF7;}
	.st21{fill:#D9B583;}
	.st22{fill:#F0C98D;}
	.st23{fill:#C3A27A;}
	.st24{fill:#B35E6D;}
	.st25{fill:#C56673;}
	.st26{fill:#F0DABA;}
	.st27{fill:#E7B673;}
	.st28{fill:#FBFBFB;}
	.st29{fill:#F3D5E2;}
	.st30{fill:#FFFFFF;}
	.st31{fill:#E0DEDE;}
	.st32{fill:#F1D7DF;}
	.st33{fill:#EED5E0;}
	.st34{fill:#C34261;}
	.st35{fill:#AF3952;}
	.st36{fill:#B33C56;}
	.st37{fill:#C63C52;}
	.st38{fill:#E1D7F7;}
	.st39{fill:#904F5D;}
	.st40{fill:#C47287;}
	.st41{fill:#B76274;}
	.st42{fill:#FFFFCF;}
	.st43{fill:#E3E2BC;}
	.st44{fill:#BBA1E9;}
	.st45{fill:#DCB886;}
	.st46{fill:#D5D4D4;}
	.st47{fill:#F5FFE1;}
	.st48{fill:#D2D6C8;}
	.st49{fill:#C1C4BB;}
	.st50{fill:#AE5C6A;}
	.st51{fill:#B05F72;}
	.st52{fill:#D2687C;}
	.st53{fill:#D1D6C5;}
	.st54{fill:#B64867;}
	.st55{fill:#CA4A68;}
	.st56{fill:#DC7486;}
	.st57{fill:#B69CE4;}
	.st58{fill:#544A30;}
	.st59{fill:#443D24;}
	.st60{fill:#DDC5AF;}
	.st61{fill:#F4D9BF;}
	.st62{fill:#D5CFF8;}
	.st63{fill:#D1DE96;}
	.st64{fill:#36301E;}
	.st65{fill:#D0D4C6;}
	.st66{fill:#F3FFDF;}
	.st67{fill:#C7A6F9;}
	.st68{fill:#B49AE2;}
	.st69{fill:#E6C2A3;}
	.st70{fill:#B56170;}
	.st71{fill:#915465;}
	.st72{fill:#A15969;}
	.st73{fill:#F4D944;}
	.st74{fill:#ECCBAE;}
	.st75{fill:#F5DBC1;}
	.st76{fill:#6EA9CD;}
	.st77{fill:#6FABCF;}
	.st78{fill:#90CAEA;}
	.st79{fill:#F3E7A8;}
	.st80{fill:#CACACA;}
	.st81{fill:#96651F;}
	.st82{fill:#A7711F;}
	.st83{fill:#B33A54;}
	.st84{fill:#BA8022;}
	.st85{fill:#BC7D25;}
	.st86{fill:#CC8A27;}
	.st87{fill:#DFAA58;}
	.st88{fill:#D99E3C;}
	.st89{fill:#C48B37;}
	.st90{fill:#E5A9BF;}
	.st91{fill:#E7B7C6;}
	.st92{fill:#C16B7F;}
	.st93{fill:#D67484;}
	.st94{fill:#AF667B;}
	.st95{fill:#BE6A7D;}
	.st96{fill:#D9B1B8;}
	.st97{fill:#B2939C;}
	.st98{fill:#C5A2AB;}
	.st99{fill:#C3B3DE;}
	.st100{fill:#D9C3F9;}
	.st101{fill:#DDAB8A;}
	.st102{fill:#DFC5AF;}
	.st103{fill:#CA9B81;}
	.st104{fill:#383220;}
	.st105{fill:#BEF2F8;}
	.st106{fill:#E8A327;}
	.st107{fill:#CEF1F8;}
	.st108{fill:#E299A6;}
	.st109{fill:#E6AFB9;}
	.st110{fill:#E2C8D4;}
	.st111{fill:#EBC8D8;}
	.st112{fill:#E299BD;}
	.st113{fill:#DEDEDE;}
	.st114{fill:#EAB9CF;}
	.st115{fill:none;stroke:#908E8F;stroke-width:8;stroke-linecap:round;stroke-miterlimit:10;}
	.st116{fill:#CC8DB1;}
	.st117{fill:#DBDBDB;}
	.st118{fill:#C7C7C7;}
	.st119{fill:#9FCD65;}
	.st120{fill:#98334C;}
	.st121{fill:#A7A6A6;}
	.st122{fill:#B9B9B9;}
	.st123{fill:#A2A2A2;}
	.st124{fill:#9C5667;}
	.st125{fill:#AE5D6C;}
	.st126{fill:#C36673;}
	.st127{fill:#7B7A7A;}
	.st128{fill:#C2BAB7;}
	.st129{fill:#AFE0EE;}
	.st130{fill:#E7B776;}
	.st131{fill:#564A2F;}
	.st132{fill:#615533;}
	.st133{fill:#9D7E75;}
	.st134{fill:#B3A5A2;}
	.st135{fill:#D8D7D7;}
	.st136{fill:#4C4429;}
	.st137{fill:#3D3622;}
	.st138{fill:#DBC3AD;}
	.st139{fill:#F2D7BD;}
	.st140{fill:#CED2C4;}
	.st141{fill:#F2FFDD;}
	.st142{fill:#C5A4F7;}
	.st143{fill:#B298E0;}
	.st144{fill:#9C5360;}
	.st145{fill:#D28492;}
	.st146{fill:#DEC340;}
	.st147{fill:#C3AB3A;}
	.st148{fill:#DABF3D;}
	.st149{fill:#B09C36;}
	.st150{fill:#CE87D5;}
	.st151{fill:#F1E081;}
	.st152{fill:#DFB67D;}
	.st153{fill:#C1AA3A;}
	.st154{fill:#D5BB3C;}
	.st155{fill:#DCDCDC;}
	.st156{fill:#D9C1AB;}
	.st157{fill:#F0D5BB;}
	.st158{fill:#CCD0C2;}
	.st159{fill:#F0FFDB;}
	.st160{fill:#C3A1F5;}
	.st161{fill:#B096DE;}
	.st162{fill:#C16673;}
	.st163{fill:#9A5360;}
	.st164{fill:#8E7852;}
	.st165{fill:#AA3952;}
	.st166{fill:#CF7488;}
	.st167{fill:#DFBB88;}
	.st168{fill:#9F8557;}
	.st169{fill:#D4B282;}
	.st170{fill:#EED2AB;}
	.st171{fill:#F2E4BF;}
	.st172{fill:#ACCEDB;}
	.st173{fill:#BCE0F2;}
	.st174{fill:#9CC7DD;}
	.st175{fill:#D4AF80;}
	.st176{fill:#A0A0A0;}
	.st177{fill:#878787;}
	.st178{fill:#D9D9D9;}
	.st179{fill:#C5C5C5;}
	.st180{fill:#9DCB65;}
	.st181{fill:#AD3952;}
	.st182{fill:#C43C52;}
	.st183{fill:#96334C;}
	.st184{fill:#A5A4A4;}
	.st185{fill:#B7B7B7;}
	.st186{fill:#9A5667;}
	.st187{fill:#AC5D6C;}
	.st188{fill:#DADADA;}
	.st189{fill:#D7BFA9;}
	.st190{fill:#EED3B9;}
	.st191{fill:#CACEC0;}
	.st192{fill:#EEFFD9;}
	.st193{fill:#C19FF3;}
	.st194{fill:#AE94DC;}
	.st195{fill:#BF6673;}
	.st196{fill:#985360;}
	.st197{fill:#86AAB2;}
	.st198{fill:#98C4CF;}
	.st199{fill:#80A2A7;}
	.st200{fill:#66989B;}
	.st201{fill:#72A8B2;}
	.st202{fill:#C7A172;}
	.st203{fill:#7EBABE;}
	.st204{fill:#99C4C9;}
	.st205{fill:#A391DE;}
	.st206{fill:#BBA1FB;}
	.st207{fill:#867FB6;}
	.st208{fill:#9387C7;}
	.st209{fill:#F0C9F6;}
	.st210{fill:#E5ACF0;}
	.st211{fill:#D3A2DF;}
	.st212{fill:#A49CD9;}
	.st213{fill:#C5B7F6;}
	.st214{fill:#D1D1D1;}
	.st215{fill:#C7859F;}
	.st216{fill:#E8B878;}
	.st217{fill:#EED5B1;}
	.st218{fill:#BA8020;}
	.st219{fill:#E8B95F;}
	.st220{fill:#B56376;}
	.st221{fill:#DABF3F;}
	.st222{fill:#F8F8F8;}
	.st223{fill:#DFBCE6;}
	.st224{fill:#C3A56D;}
	.st225{fill:#AE9466;}
	.st226{fill:#D5889A;}
	.st227{fill:#C1A27B;}
	.st228{fill:#ECCDD3;}
	.st229{fill:#D38ADA;}
	.st230{fill:#B3606F;}
	.st231{fill:#A15A6B;}
	.st232{fill:#DAB785;}
	.st233{fill:#E5A85B;}
	.st234{fill:#CC88A2;}
	.st235{fill:#D5D4D5;}
	.st236{fill:#B05F6D;}
	.st237{fill:#F2D744;}
	.st238{fill:#77B6E8;}
	.st239{fill:#6FA9CD;}
	.st240{fill:#8EC8E8;}
	.st241{fill:#F1E5A6;}
	.st242{fill:#A13856;}
	.st243{fill:#8E3251;}
	.st244{fill:#6BA3BE;}
	.st245{fill:#D9BD39;}
	.st246{fill:#D7BD3D;}
	.st247{fill:#ADD6E0;}
	.st248{fill:#CCEAF2;}
	.st249{fill:#EAC3D2;}
	.st250{fill:#736144;}
	.st251{fill:#D4D3D2;}
	.st252{fill:#89754F;}
	.st253{fill:#B05D6C;}
	.st254{fill:#F1E3F7;}
	.st255{fill:#817E7D;}
	.st256{fill:#DBD2D0;}
	.st257{fill:#DF92AB;}
	.st258{fill:#D28995;}
	.st259{fill:#D5BB3D;}
	.st260{fill:#D4D4D4;}
	.st261{fill:#D49125;}
	.st262{fill:#D58A97;}
	.st263{fill:#669699;}
	.st264{fill:#72A6B0;}
	.st265{fill:#3B5967;}
	.st266{fill:#BEE6FD;}
	.st267{fill:#B36376;}
	.st268{fill:#D08290;}
	.st269{fill:#D8BD3F;}
	.st270{fill:#F1D3E0;}
	.st271{fill:#F6F6F6;}
	.st272{fill:#D6A3AD;}
	.st273{fill:#94BD61;}
	.st274{fill:#CC8BA4;}
	.st275{fill:#DD90A9;}
	.st276{fill:#D5BDA7;}
	.st277{fill:#ECD1B7;}
	.st278{fill:#C8CCBE;}
	.st279{fill:#EDFFD7;}
	.st280{fill:#BF9DF1;}
	.st281{fill:#AC92DA;}
	.st282{fill:#BD6673;}
	.st283{fill:#D8D8D8;}
	.st284{fill:#85A8B0;}
	.st285{fill:#96C2CD;}
	.st286{fill:#EEC78B;}
	.st287{fill:#D7D7D7;}
	.st288{fill:#C3C3C3;}
	.st289{fill:#A3A2A2;}
	.st290{fill:#B5B5B5;}
	.st291{fill:#9E9E9E;}
	.st292{fill:#985667;}
	.st293{fill:#AA5D6C;}
	.st294{fill:#E4C0A1;}
	.st295{fill:#EAC9AC;}
	.st296{fill:#6EA7CB;}
	.st297{fill:#F9F9F9;}
	.st298{fill:#ECD3DE;}
	.st299{fill:#C7F6F8;}
	.st300{fill:#DEF4F8;}
	.st301{fill:#ADA7A6;}
	.st302{fill:#E0E0E0;}
	.st303{fill:#736F6D;}
	.st304{fill:#DBB684;}
	.st305{fill:#D395A0;}
	.st306{fill:#36515B;}
	.st307{fill:#62605E;}
	.st308{fill:#2C4046;}
	.st309{fill:#BFC2B9;}
	.st310{fill:#7FA0A5;}
	.st311{fill:#87ABB5;}
	.st312{fill:#DDB47D;}
	.st313{fill:#C59F72;}
	.st314{fill:#7DB8BC;}
	.st315{fill:#97C2C7;}
	.st316{fill:#9A835C;}
	.st317{fill:#AB9162;}
	.st318{fill:#B59A6A;}
	.st319{fill:#D1D0CF;}
	.st320{fill:#E0CEDD;}
	.st321{fill:#5C3D11;}
	.st322{fill:#704B12;}
	.st323{fill:#E1A3FB;}
	.st324{fill:#B09565;}
	.st325{fill:#70AACD;}
	.st326{fill:#D9D8D7;}
	.st327{fill:#DFC7B1;}
	.st328{fill:#90B7BE;}
	.st329{fill:#9E5667;}
	.st330{fill:#E7FB90;}
	.st331{fill:#D7D1FA;}
	.st332{fill:#87ACB4;}
	.st333{fill:#D4AF90;}
	.st334{fill:#D8B280;}
	.st335{fill:#8C4B57;}
	.st336{fill:#CCCCCC;}
	.st337{fill:#B25F6D;}
	.st338{fill:#F4D4B3;}
	.st339{fill:#FCE5C8;}
	.st340{fill:#5A8384;}
	.st341{fill:#CE8AA2;}
	.st342{fill:#D6D6D6;}
	.st343{fill:#D8BAC6;}
	.st344{fill:#DBB482;}
</style>
<g id="BULINE">
	<circle id="XMLID_2532_" class="st2" cx="256" cy="256" r="256"/>
</g>
<g id="Icons">
	<g id="XMLID_3479_">
		<g id="XMLID_2743_">
			<path id="XMLID_2744_" class="st25" d="M410,222h-305L256,60.9L410,222z M132.8,210H382L256,78.4L132.8,210z"/>
		</g>
		<g id="XMLID_2923_">
			<path id="XMLID_2929_" class="st32" d="M274.2,449.3c0,7.4,2.5,15.2-0.2,21.6c-2.8,6.6-10.1,10.4-15.1,15.4
				c-5,5-8.8,12.4-15.4,15.1c-0.6,0.3-1.3,0.5-1.9,0.6c-4,1.1-8.5,0.5-13.1,0c-2.2-0.2-4.4-0.4-6.6-0.4c-2.1,0-4.3,0.2-6.5,0.4
				c-5.3,0.6-10.5,1.3-15.1-0.6c-6.6-2.8-10.4-10.1-15.4-15.1c-5-5-12.4-8.8-15.1-15.4c-2.7-6.4-0.2-14.2-0.2-21.6
				s-2.5-15.2,0.2-21.6c2.8-6.6,10.1-10.4,15.1-15.4c5-5,8.8-12.4,15.4-15.1c4.5-1.9,9.8-1.2,15.1-0.6c2.2,0.2,4.3,0.4,6.5,0.4
				c2.2,0,4.4-0.2,6.6-0.4c4.5-0.5,9-1,13.1,0c0.6,0.2,1.3,0.4,1.9,0.6c6.6,2.8,10.4,10.1,15.4,15.1c5,5,12.4,8.8,15.1,15.4
				C276.6,434.1,274.2,441.9,274.2,449.3z"/>
			<path id="XMLID_2928_" class="st30" d="M274.2,449.3c0,7.4,2.5,15.2-0.2,21.6c-2.8,6.6-10.1,10.4-15.1,15.4
				c-5,5-8.8,12.4-15.4,15.1c-0.6,0.3-1.3,0.5-1.9,0.6c-2.2-0.2-4.3-0.4-6.5-0.4c-2.2,0-4.4,0.2-6.6,0.4c-4.5,0.5-9,1-13.1,0
				c-0.6-0.2-1.3-0.4-1.9-0.6c-6.6-2.8-10.4-10.1-15.4-15.1c-5-5-12.4-8.8-15.1-15.4c-2.7-6.4-0.2-14.2-0.2-21.6s-2.5-15.2,0.2-21.6
				c2.8-6.6,10.1-10.4,15.1-15.4c5-5,8.8-12.4,15.4-15.1c0.6-0.3,1.3-0.5,1.9-0.6c4-1.1,8.5-0.5,13.1,0c2.2,0.2,4.4,0.4,6.6,0.4
				c2.1,0,4.3-0.2,6.5-0.4c0.6,0.2,1.3,0.4,1.9,0.6c6.6,2.8,10.4,10.1,15.4,15.1c5,5,12.4,8.8,15.1,15.4
				C276.6,434.1,274.2,441.9,274.2,449.3z"/>
			<path id="XMLID_2926_" class="st337" d="M245.4,449.3c0,11.3-8,20.8-18.6,23c-1.6,0.3-3.2,0.5-4.9,0.5c-13,0-23.5-10.5-23.5-23.5
				s10.5-23.5,23.5-23.5c1.7,0,3.3,0.2,4.9,0.5C237.4,428.5,245.4,438,245.4,449.3z"/>
			<ellipse id="XMLID_2924_" class="st25" cx="226.7" cy="449.3" rx="18.6" ry="23"/>
		</g>
		<g id="XMLID_2893_">
			<path id="XMLID_2922_" class="st32" d="M105.3,233.3c0,6.2,2.1,12.8-0.2,18.2c-2.3,5.6-8.5,8.8-12.8,13
				c-4.2,4.2-7.4,10.4-13,12.8c-0.5,0.2-1.1,0.4-1.6,0.5c-3.4,0.9-7.2,0.4-11.1,0c-1.9-0.2-3.7-0.4-5.6-0.4c-1.8,0-3.6,0.2-5.5,0.4
				c-4.5,0.5-8.9,1.1-12.8-0.5c-5.6-2.3-8.8-8.5-13-12.8c-4.2-4.2-10.4-7.4-12.8-13c-2.2-5.4-0.2-12-0.2-18.2
				c0-6.2-2.1-12.8,0.2-18.2c2.3-5.6,8.5-8.8,12.8-13c4.2-4.2,7.4-10.4,13-12.8c3.8-1.6,8.3-1,12.8-0.5c1.8,0.2,3.7,0.4,5.5,0.4
				c1.8,0,3.7-0.2,5.6-0.4c3.8-0.4,7.6-0.9,11.1,0c0.5,0.1,1.1,0.3,1.6,0.5c5.6,2.3,8.8,8.5,13,12.8c4.2,4.2,10.4,7.4,12.8,13
				C107.3,220.5,105.3,227.1,105.3,233.3z"/>
			<path id="XMLID_2908_" class="st30" d="M105.3,233.3c0,6.2,2.1,12.8-0.2,18.2c-2.3,5.6-8.5,8.8-12.8,13
				c-4.2,4.2-7.4,10.4-13,12.8c-0.5,0.2-1.1,0.4-1.6,0.5c-1.8-0.2-3.7-0.4-5.5-0.4c-1.8,0-3.7,0.2-5.6,0.4c-3.8,0.4-7.6,0.9-11.1,0
				c-0.5-0.1-1.1-0.3-1.6-0.5c-5.6-2.3-8.8-8.5-13-12.8c-4.2-4.2-10.4-7.4-12.8-13c-2.2-5.4-0.2-12-0.2-18.2
				c0-6.2-2.1-12.8,0.2-18.2c2.3-5.6,8.5-8.8,12.8-13c4.2-4.2,7.4-10.4,13-12.8c0.5-0.2,1.1-0.4,1.6-0.5c3.4-0.9,7.2-0.4,11.1,0
				c1.9,0.2,3.7,0.4,5.6,0.4c1.8,0,3.6-0.2,5.5-0.4c0.5,0.1,1.1,0.3,1.6,0.5c5.6,2.3,8.8,8.5,13,12.8c4.2,4.2,10.4,7.4,12.8,13
				C107.3,220.5,105.3,227.1,105.3,233.3z"/>
			<path id="XMLID_2897_" class="st337" d="M80.9,233.3c0,9.6-6.8,17.5-15.7,19.4c-1.3,0.3-2.7,0.4-4.1,0.4
				c-11,0-19.9-8.9-19.9-19.9s8.9-19.9,19.9-19.9c1.4,0,2.8,0.1,4.1,0.4C74.2,215.7,80.9,223.7,80.9,233.3z"/>
			<ellipse id="XMLID_2896_" class="st25" cx="65.2" cy="233.3" rx="15.7" ry="19.4"/>
		</g>
		<g id="XMLID_2497_">
			<path id="XMLID_2538_" class="st338" d="M435.5,223.7v166c0,9.4-7.6,17-17,17h-326c-9.4,0-17-7.6-17-17v-166c0-9.4,7.6-17,17-17
				h326C427.9,206.7,435.5,214.4,435.5,223.7z"/>
			<path id="XMLID_2531_" class="st339" d="M435.5,223.7v166c0,9.4-7.9,17-17.6,17H132.5c-9.7,0-17.6-7.6-17.6-17v-166
				c0-9.4,7.9-17,17.6-17h285.5C427.7,206.7,435.5,214.4,435.5,223.7z"/>
			<g id="XMLID_2524_">
				<path id="XMLID_2560_" class="st25" d="M218.4,235.1c-0.3,5.3-0.5,14.7-0.6,28.1c0,0.8,0,2.4,0,4.7c0,2,0,3.6,0,4.8
					c-0.1,1.8-0.2,3.3-0.4,4.6c-0.1,0.6-0.2,1.4-0.4,2.3c-1.7,8.2-7.1,12.3-16.3,12.3c-9.7,0-14.6-5-14.6-15c0-1.2,0-2.2,0.1-3
					c0.3-2.5,1.5-4.7,3.6-6.6c2.1-1.8,4.2-2.6,6.4-2.4c1,0,1.8,0.1,2.3,0.4c2.3,0.9,3.5,2.3,3.7,4.3c0.1,0.9,0.1,1.5,0.1,1.8
					c0,0.9-0.3,1.6-1,1.9c-0.4-0.1-0.9,0-1.4,0.2c-0.5,0.2-0.7,0.6-0.7,1c0,1.2,0.6,1.8,1.8,1.8c0.7,0,1.4-0.4,2.1-1.1
					c0.4-1.1,0.7-3,0.7-5.9c0.1-0.4,0.1-0.9,0.1-1.5c0-0.6-0.1-3.5-0.4-8.5c-0.4-6.6-0.9-11.7-1.6-15.2c-0.1-0.5-0.5-1.6-1.2-3.2
					c-0.5-1.4-0.8-2.5-0.8-3.4c0-0.8,0.2-1.5,0.7-2.1c3.1-1.5,6.6-2.2,10.5-2.2c2.2,0,3.5,0,3.9,0.1
					C217,233.6,218,234.2,218.4,235.1z"/>
				<path id="XMLID_2637_" class="st25" d="M258.1,238c0,0.9-0.2,2.4-0.6,4.6c-0.1,1.4-0.2,4.3-0.2,8.7c0,1.6,0,3.9,0,7
					c0,3.1,0,5.5,0,7c0,5-0.2,9.3-0.5,12.8c-0.7,7-3.5,11.2-8.3,12.6c-3.3,0.9-6.6,1.3-9.8,1.3c-9.5,0-14.7-4.6-15.4-13.8
					c-0.3-3.7-0.4-7.9-0.4-12.7c0-1.8,0.1-4.5,0.3-8.2c0.2-3.6,0.3-6.4,0.3-8.2c0-3.3-0.2-5.8-0.5-7.6c-0.1-0.3-0.2-0.9-0.6-1.9
					c-0.3-0.8-0.4-1.4-0.4-1.9c0-2.1,2.1-3.3,6.3-3.7c0.4,0,1.2-0.2,2.5-0.4c1-0.2,1.9-0.3,2.5-0.3c2.6,0,4.1,0.9,4.5,2.7
					c0,0.1,0.1,1.3,0.1,3.5c0,2.2-0.1,5.5-0.3,10c-0.2,4.5-0.3,7.8-0.3,10c0,1.6,0,3.7,0.1,6.3c0.2,0.6,0.3,1.6,0.3,3.1
					c0,2,0.8,3,2.3,3c2,0,3.2-0.7,3.5-2.2c0,0,0.2-1.6,0.4-4.6c0.3-4,0.4-7.7,0.4-11c0-3.8-0.2-7.4-0.6-10.6c0-0.3-0.1-0.8-0.2-1.5
					c-0.5-1.9-0.8-3-0.8-3.3c0-0.6,0.1-1.2,0.2-1.8c1.2-1.4,3.6-2.4,7.2-2.8c1.7-0.2,2.7-0.3,2.9-0.3c1.8,0,3,0.3,3.9,0.9
					C257.7,235.2,258.1,236.3,258.1,238z"/>
				<path id="XMLID_2639_" class="st25" d="M295.1,273.6c0,2.7-0.5,5.3-1.5,7.9c-1.1,2.9-2.6,5.1-4.5,6.7c-3.1,2.5-8.5,3.8-16.3,3.8
					c0.1,0,0.1,0,0,0c-0.2,0-0.5-0.1-0.8-0.1c-1.2-0.1-2.9-0.2-5.2-0.4c-2-0.1-3.4-1-4.2-2.6c-0.1-1.7-0.3-3.5-0.6-5.5
					c-0.3-2.2-0.4-4-0.4-5.4c0-2.5,0.5-4.8,1.5-7.1c0.7-0.6,1.5-0.9,2.5-0.9c0.6,0,2.2,0.9,4.6,2.7c2.4,1.8,4.4,2.7,5.9,2.7
					c0.4,0,0.7,0,0.8-0.1c0.7-0.4,1.1-1.3,1.1-2.5c0-1.5-1.3-3.3-4-5.6c-4-3.4-6.4-5.7-7.4-6.9c-2.6-3.3-4-6.8-4-10.6
					c0-3.6,0.8-6.5,2.5-8.8c2.7-3.7,6.5-6,11.5-7.1c1.4-0.3,2.3-0.4,2.6-0.4c0.2,0,0.8,0,1.7,0.1c0.9,0.1,1.4,0.1,1.6,0.1
					c4.2,0,7,0.1,8.3,0.4c2,1.3,2.9,4.1,2.9,8.4c0,2.3-0.2,4.3-0.6,6c-0.4,2-1.3,2.9-2.7,2.9c-1.1,0-2.8-0.7-4.9-2.1
					c-2.2-1.4-3.7-2.1-4.7-2.1c-0.7,0-1.4,0.2-2.1,0.6c-0.2,0.4-0.3,0.8-0.3,1.3c0,1.3,1.4,3.3,4.3,5.8c4.6,4,7.3,6.5,8.2,7.6
					C293.6,266,295.1,269.7,295.1,273.6z"/>
				<path id="XMLID_2641_" class="st25" d="M334.1,239c0,0.6-0.1,1.6-0.1,2.8c-0.1,1.2-0.1,2.2-0.1,2.8v2.5c0,0.4,0,0.9,0.1,1.5
					c0,0.6,0,0.9,0,1c0,3.7-1,5.5-2.9,5.5c-0.7,0-1.7-0.6-3.1-1.8c-1.4-1.2-2.4-1.8-3.2-1.8c-0.8,0.3-1.2,1-1.2,2.1
					c0,2.7,0,6.9,0.1,12.3c0,5.5,0.1,9.6,0.1,12.3c0,0.9,0.2,2.3,0.5,4.2c0.3,1.8,0.5,3.2,0.5,4.1c0,3-1.5,4.8-4.5,5.4
					c-0.6,0.1-3.4,0.2-8.2,0.2h-2.5c-1.6-0.8-2.3-2.4-2.3-4.7c0-0.2,0-0.7,0.1-1.6c0-0.9,0.1-1.5,0.1-1.8c0-0.1,0-0.3-0.1-0.6v-0.6
					c0-0.7,0.1-2,0.2-3.8c0.2-2.4,0.3-4.1,0.4-5.2c0.2-4.1,0.6-10.2,1.1-18.2c-0.2-0.3-0.2-1.1-0.1-2.3c0-1-0.2-1.7-0.7-2.1
					c-0.9,0-2.1,0.7-3.6,2c-1.5,1.3-2.7,2-3.6,2c-1.4,0-2.1-1.7-2.1-5.1c0-0.1,0-0.4,0.1-1c0-0.5,0-1,0-1.5v-5.1c0-0.4,0-1,0-1.5
					c0-0.6-0.1-1-0.1-1.1c0-3.1,0.5-5,1.4-5.7c0.4-0.7,5.7-1.1,15.6-1.1c9.5,0,15.2,0.4,17,1.1C333.6,234.8,334.1,236.4,334.1,239z"
					/>
				<path id="XMLID_2643_" class="st25" d="M177.1,327.9c0,1.2-0.1,2.9-0.2,5.3c-0.1,2.3-0.2,4.1-0.2,5.3c0,2.9,0,7.4-0.1,13.3
					c0,5.9-0.1,10.3-0.1,13.3c0,1.9,0,3.6,0.1,5.1v5.1c0,0.5-0.3,1.5-1,2.9c-1.8,1.1-5.3,1.7-10.4,1.7c-0.4,0-0.9-0.2-1.5-0.6
					c-0.6-0.4-1-0.7-1.2-1.1c-0.3-0.6-0.5-1.6-0.5-3c0-5.7,0.2-11.7,0.7-18.1c0-1,0.2-2.7,0.4-5.2c0-0.5,0.1-0.7,0.1-0.5
					c0-0.8-0.3-1.3-0.9-1.5c-0.4,0.3-0.8,0.9-1,1.9c-0.8,3.1-1.6,6.7-2.4,10.7l-2.1,10.9c-0.1,0.4-0.3,1.1-0.5,2.2
					c-0.1,0.5-0.5,1.5-1,2.9c-0.3,0.9-1.9,1.3-4.6,1.3c-1,0-2.4-0.1-4.1-0.4c-1.3-0.2-2.5-3.4-3.6-9.7c-0.3-2.1-0.8-5.2-1.5-9.3
					c-0.2-1.2-0.6-3.3-1.2-6.2c0-0.5-0.2-1.4-0.5-2.7c-0.1-0.2-0.2-0.4-0.4-0.4c-0.3,0-0.6,0.3-0.8,0.8c-0.2,0.5-0.4,1-0.4,1.4
					c0,0.1,0,0.5,0.1,1.1c0.1,0.6,0.1,1,0.1,1.2c0,0.2,0,0.6-0.1,1.3c0,0.7-0.1,1.1-0.1,1.3c0,1.9,0.2,4.8,0.6,8.6
					c0.4,3.8,0.6,6.7,0.6,8.6c0,1.9-0.6,3.1-1.7,3.6c-1.7,0.8-3.8,1.2-6.3,1.2c-0.3,0-1.4-0.3-3.1-0.9c-0.7-0.6-1.1-1.8-1.2-3.5
					c-0.1-2.8-0.1-6.5-0.1-11c0-2.3,0-5.9,0.1-10.6c0-4.7,0.1-8.3,0.1-10.6c0-0.9,0-3.5-0.1-7.7c0-0.5,0-1.6-0.1-3.2
					c-0.1-0.3-0.2-1.1-0.6-2.2c-0.3-0.9-0.4-1.7-0.4-2.4c0-2.6,1.5-4.2,4.6-4.8c2.9-0.5,6.6-1,10.9-1.5c2-0.2,3.3-0.3,3.8-0.3
					c2.1,0,3.4,0.8,3.8,2.3c0.6,2.1,1.1,5.6,1.7,10.6c0.5,4.6,1.2,8.1,2.1,10.6c0,0.2,0.1,0.3,0.3,0.3c0.1,0,0.3-0.1,0.5-0.3
					c0.8-2.2,1.4-4.5,1.9-7c0.3-1.6,0.8-4,1.4-7.2c0.2-1,0.8-2.9,1.7-5.7c0.6-1.2,2.1-2,4.6-2.4c0.4,0,1.2-0.1,2.2-0.2
					c3.8-0.4,5.9-0.6,6.3-0.6c3.6,0,5.4,0.9,5.4,2.6c0,0.2,0,0.8,0.1,1.7C177.1,327,177.1,327.6,177.1,327.9z"/>
				<path id="XMLID_2645_" class="st25" d="M219.5,376.6c0,1.1-0.7,1.9-2.1,2.4c-2.1,0.7-4.3,1.1-6.7,1.1c-2.5,0-4.6-0.5-6.2-1.5
					c-0.4-1.2-0.7-2.8-0.8-4.7c-0.1-2.2-0.3-3.7-0.6-4.7c-0.7-0.5-1.5-0.7-2.6-0.7c-0.3,0-1.4,0.1-3.3,0.4c-0.3,0.7-0.7,2.4-1.2,5.1
					c-0.2,1.3-0.5,2.6-0.7,4c-0.2,0.2-0.6,0.5-1.1,0.7l-1.3,0.7c-2.1,0.5-4.1,0.8-6.2,0.8c-2.2,0-3.6-0.2-4.3-0.7
					c-0.7-0.5-1.1-1.3-1.1-2.4c0-0.4,0.2-1.7,0.5-4c0.2-1.9,1.1-6.2,2.6-12.9l2.7-12.3c1.1-5.2,1.7-9.3,1.7-12.1
					c0-0.8-0.3-1.9-0.8-3.5c-0.5-1.5-0.8-2.7-0.8-3.5c0-1.2,0.4-2.1,1.1-2.8c0.1-0.1,0.6-0.4,1.4-0.8c3.4-1.8,7.7-2.9,12.9-3.4
					l4.6-0.4c2.9,0,4.7,0.8,5.5,2.5c0.4,6.8,1.2,14.7,2.5,23.9l3.4,23.7C219.3,374.7,219.5,376.4,219.5,376.6z M202.3,349
					c0-0.9-0.1-2.3-0.3-4.1c-0.2-1.8-0.3-3.2-0.3-4.1c0-0.6,0-1.1,0.1-1.4l-0.7-0.4c-1.7,5.5-2.5,9.3-2.5,11.5
					c0,1.4,0.5,2.1,1.6,2.1c0.6,0,1.3-0.2,1.9-0.7C202.2,350.8,202.3,349.9,202.3,349z"/>
				<path id="XMLID_2648_" class="st25" d="M260.5,365.2c0,3.9-0.7,7.2-2,9.8c-1.8,3.4-4.4,5.2-7.9,5.2c-1.2,0-2.2-0.2-3-0.7
					c-2.4-1.3-4.1-3.6-4.8-6.8c-0.4-1.9-1-4.7-1.8-8.4c0,0-0.3-0.5-0.8-1.4c-0.3-0.6-0.7-0.9-1.2-0.9c-0.7,0-1.1,0.7-1.3,2
					c-0.1,0.6-0.1,1.4-0.1,2.5c0,0.9,0.1,2.2,0.2,3.9c0.1,1.7,0.2,3,0.2,3.9c0,1.2-0.1,2.2-0.2,2.9c-0.3,1.3-2.2,1.9-5.6,1.9
					c-0.3,0-1,0.1-2.2,0.1c-1.2,0.1-2,0.1-2.3,0.1c-2,0-3-0.7-3.2-2.1c0-0.1-0.1-1.8-0.1-5.1c0-4,0.1-10.1,0.3-18.1
					c0.2-8.1,0.3-14.1,0.3-18.1c0-0.7-0.3-1.9-0.8-3.6c-0.6-1.7-0.8-2.9-0.8-3.8c0-1.1,0.4-2,1.2-2.9c1.2-1.2,2.9-2.1,5-2.7
					c0.5-0.1,2.4-0.5,5.7-1l0.8-0.1c0.6-0.1,1.1-0.2,1.7-0.3c2-0.1,3.1-0.1,3.4-0.1c0.7,0,2.1,0.1,4,0.4c4.7,0.7,8.3,2.4,10.9,4.8
					c2.8,2.7,4.3,6.3,4.3,10.8c0,4-1.1,7.6-3.2,10.8c-0.6,1-1.9,2.3-3.7,3.8c-1.1,1-1.7,1.7-1.7,2.2c0,0.9,0.4,1.7,1.3,2.3
					c0.9,0.7,1.8,1,2.8,1c0.2,0,0.5-0.1,0.9-0.2c0.4-0.1,0.7-0.2,0.9-0.2c1.1,0,1.9,1.1,2.4,3.2
					C260.3,362.1,260.5,363.7,260.5,365.2z M245.5,341.7c0-2.8-1.3-4.3-3.9-4.3c-0.6,0-1,0-1.1,0.1c-1.3,0.4-1.9,1.8-1.9,4.3v2
					c0,1.2,1.2,1.8,3.5,1.8c1,0,1.8-0.4,2.5-1.1C245.2,343.8,245.5,342.9,245.5,341.7z"/>
				<path id="XMLID_2676_" class="st25" d="M300.5,365.2c0,3.9-0.7,7.2-2,9.8c-1.8,3.4-4.4,5.2-7.9,5.2c-1.2,0-2.2-0.2-3-0.7
					c-2.4-1.3-4.1-3.6-4.8-6.8c-0.4-1.9-1-4.7-1.8-8.4c0,0-0.3-0.5-0.8-1.4c-0.3-0.6-0.7-0.9-1.2-0.9c-0.7,0-1.1,0.7-1.3,2
					c-0.1,0.6-0.1,1.4-0.1,2.5c0,0.9,0.1,2.2,0.2,3.9c0.1,1.7,0.2,3,0.2,3.9c0,1.2-0.1,2.2-0.2,2.9c-0.3,1.3-2.2,1.9-5.6,1.9
					c-0.3,0-1,0.1-2.2,0.1c-1.2,0.1-2,0.1-2.3,0.1c-2,0-3-0.7-3.2-2.1c0-0.1-0.1-1.8-0.1-5.1c0-4,0.1-10.1,0.3-18.1
					c0.2-8.1,0.3-14.1,0.3-18.1c0-0.7-0.3-1.9-0.8-3.6c-0.6-1.7-0.8-2.9-0.8-3.8c0-1.1,0.4-2,1.2-2.9c1.2-1.2,2.9-2.1,5-2.7
					c0.5-0.1,2.4-0.5,5.7-1l0.8-0.1c0.6-0.1,1.1-0.2,1.7-0.3c2-0.1,3.1-0.1,3.4-0.1c0.7,0,2.1,0.1,4,0.4c4.7,0.7,8.3,2.4,10.9,4.8
					c2.8,2.7,4.3,6.3,4.3,10.8c0,4-1.1,7.6-3.2,10.8c-0.6,1-1.9,2.3-3.7,3.8c-1.1,1-1.7,1.7-1.7,2.2c0,0.9,0.4,1.7,1.3,2.3
					c0.9,0.7,1.8,1,2.8,1c0.2,0,0.5-0.1,0.9-0.2c0.4-0.1,0.7-0.2,0.9-0.2c1.1,0,1.9,1.1,2.4,3.2
					C300.3,362.1,300.5,363.7,300.5,365.2z M285.4,341.7c0-2.8-1.3-4.3-3.9-4.3c-0.6,0-1,0-1.1,0.1c-1.3,0.4-1.9,1.8-1.9,4.3v2
					c0,1.2,1.2,1.8,3.5,1.8c1,0,1.8-0.4,2.5-1.1C285.1,343.8,285.4,342.9,285.4,341.7z"/>
				<path id="XMLID_2679_" class="st25" d="M319.4,375.7c0,1-0.1,1.5-0.2,1.7c-1.4,2.1-4.1,3-7.9,2.7l-5.7-0.4
					c-1.1-0.6-1.7-1.7-2-3.2v-4c0-0.2,0-0.5-0.1-0.7v-0.7c0-1,0-1.9,0.1-2.8l0.1-2.7c0-0.9,0.1-8.6,0.3-23.3c0-1,0-2.8,0.1-5.4
					c0-0.9,0.1-1.4,0.1-1.5c0-1-0.3-2.5-1-4.5c-0.7-2-1-3.5-1-4.6v-0.7c0.9-1.5,2.3-2.4,4.1-2.8l5.1-1.1c1.4-0.3,2.5-0.4,3.3-0.4
					c2.1,0,3.3,0.6,3.8,1.8c0.5,1.4,0.8,4.7,0.8,9.9c0,2-0.1,5-0.3,9.1c-0.2,4-0.3,7.1-0.3,9.1c0,2.7,0.1,6.8,0.3,12.2
					C319.3,368.9,319.4,373,319.4,375.7z"/>
				<path id="XMLID_2681_" class="st25" d="M355.5,333.1c0,3.7-1.2,5.5-3.5,5.5c-0.9,0-2.3-0.5-4.3-1.5c-2-1-3.6-1.5-4.8-1.5
					c-1.9,0-3,0-3.2-0.1c-1.8,0.4-2.7,1.6-2.7,3.5c0,0.9,0.2,2,0.5,3.3c0.4,0.3,0.8,0.4,1.2,0.4c0.7,0,2.1-0.4,4.1-1.3
					c2-0.9,3.4-1.3,4.3-1.3c1.3,0,2.2,0.4,2.7,1.3c0.3,0.5,0.4,1.6,0.4,3.2c0,0.8,0,2-0.1,3.6c-0.1,1.6-0.1,2.8-0.1,3.6v1.1
					c-0.1,0.7-0.4,1.5-0.9,2.3c-0.6,1-1.2,1.5-1.9,1.5c-1.5,0-3.3-0.5-5.4-1.6c-1.3-0.7-2.4-1.2-3.2-1.7c-1,0-1.5,1.5-1.5,4.4
					c0,1.9,0.4,3.1,1.1,3.8c0.5,0.4,1.3,0.7,2.5,0.7c1.5,0,3.8-0.7,6.8-2c3-1.3,4.8-2,5.4-2c0.4,0,0.9,0.4,1.4,1.1
					c0.5,0.7,0.8,1.5,1,2.2c0.1,0.7,0.2,1.4,0.2,2.1c0,0.4,0,1.2-0.1,2.6c-0.1,1.3-0.1,2.2-0.1,2.6c0,4.9-0.6,8.3-1.9,10.4
					c-1.2,0.6-2.6,0.9-4,0.9h-0.6c-0.2,0-0.4,0-0.7,0c-2.3,0-6.9,0-13.7,0c-3.8,0-6.3-0.1-7.3-0.4c-2.1-0.6-3.2-2.5-3.2-5.7
					c0-4.3,0.1-10.5,0.3-18.8l0.4-19.2c0-1-0.3-2.6-1-4.7c-0.6-2-1-3.5-1-4.6c0-1,0.2-2,0.7-2.9c1.5-1.2,3.9-1.9,7.3-2.1
					c1.7-0.1,2.3-0.1,1.9-0.1h7.3c0.3,0,0.9,0,1.8,0.1c0.9,0.1,1.5,0.1,1.7,0.1c2.4,0,5.8,0.2,10,0.6c1.1,0.4,1.7,2.2,1.9,5.3
					c0,0.3,0.1,0.8,0.2,1.5C355.4,330.2,355.5,331.5,355.5,333.1z"/>
				<path id="XMLID_2683_" class="st25" d="M395.2,348c0,3.2-0.3,7.3-0.9,12.4c-0.2,1.9-0.4,3.2-0.6,4c-0.2,1.2-0.6,2.5-1.2,3.9
					c-2.5,6.3-6.4,9.9-11.5,11c-3.1,0.6-6.6,1-10.4,1c-2.6,0-4.6-0.1-5.9-0.4c-1.9-0.3-3.1-1.6-3.5-3.7c0,0-0.1-1.1-0.1-3.2
					c-0.1-2.8-0.1-5.3-0.1-7.4c0-3.2,0-7.2,0.1-12l0.2-15.1c0-0.5,0-1.1,0-1.7c0-0.7-0.1-1.1-0.1-1.3c0-0.9-0.4-2.3-1.1-4
					c-0.8-1.8-1.1-3.1-1.1-4.1c0-1.2,0.7-2.3,2-3.1c0.1,0,0.7-0.3,1.9-0.7c3.7-1.4,7.6-2.1,11.6-2.1c7,0,11.9,1.8,14.8,5.3
					c0.4,0.5,0.9,1.3,1.6,2.4C393.8,333.9,395.2,340.2,395.2,348z M381.8,350.6c0-3.3-0.6-6.5-1.8-9.6c-0.5-1.4-1.4-2.1-2.6-2.1
					c-0.4,0-0.9,0.1-1.4,0.4c-0.7,0.4-1.1,4.5-1.1,12.2c0,3.8,0,6.2,0.1,7c0.1,0.3,0.3,0.7,0.7,1c1,0.2,1.7,0.4,2.1,0.4
					C380.5,360,381.8,356.8,381.8,350.6z"/>
			</g>
		</g>
		<path id="XMLID_2752_" class="st340" d="M276,69.7c0,9.3-6.4,17.2-15,19.4c-1.6,0.4-3.3,0.6-5,0.6c-11.1,0-20-9-20-20
			c0-11,8.9-20,20-20c1.7,0,3.4,0.2,5,0.6C269.6,52.5,276,60.3,276,69.7z"/>
		<ellipse id="XMLID_2750_" class="st263" cx="261" cy="69.7" rx="15" ry="19.4"/>
		<g id="XMLID_2886_">
			<path id="XMLID_2892_" class="st32" d="M487.8,196c0,6.2,2.1,12.8-0.2,18.2c-2.3,5.6-8.5,8.8-12.8,13c-4.2,4.2-7.4,10.4-13,12.8
				c-0.5,0.2-1.1,0.4-1.6,0.5c-3.4,0.9-7.2,0.4-11.1,0c-1.9-0.2-3.7-0.4-5.6-0.4c-1.8,0-3.6,0.2-5.5,0.4c-4.5,0.5-8.9,1.1-12.8-0.5
				c-5.6-2.3-8.8-8.5-13-12.8c-4.2-4.2-10.4-7.4-12.8-13c-2.2-5.4-0.2-12-0.2-18.2c0-6.2-2.1-12.8,0.2-18.2c2.3-5.6,8.5-8.8,12.8-13
				c4.2-4.2,7.4-10.4,13-12.8c3.8-1.6,8.3-1,12.8-0.5c1.8,0.2,3.7,0.4,5.5,0.4c1.8,0,3.7-0.2,5.6-0.4c3.8-0.4,7.6-0.9,11.1,0
				c0.5,0.1,1.1,0.3,1.6,0.5c5.6,2.3,8.8,8.5,13,12.8c4.2,4.2,10.4,7.4,12.8,13C489.9,183.2,487.8,189.8,487.8,196z"/>
			<path id="XMLID_2890_" class="st30" d="M487.8,196c0,6.2,2.1,12.8-0.2,18.2c-2.3,5.6-8.5,8.8-12.8,13c-4.2,4.2-7.4,10.4-13,12.8
				c-0.5,0.2-1.1,0.4-1.6,0.5c-1.8-0.2-3.7-0.4-5.5-0.4c-1.8,0-3.7,0.2-5.6,0.4c-3.8,0.4-7.6,0.9-11.1,0c-0.5-0.1-1.1-0.3-1.6-0.5
				c-5.6-2.3-8.8-8.5-13-12.8c-4.2-4.2-10.4-7.4-12.8-13c-2.2-5.4-0.2-12-0.2-18.2c0-6.2-2.1-12.8,0.2-18.2c2.3-5.6,8.5-8.8,12.8-13
				c4.2-4.2,7.4-10.4,13-12.8c0.5-0.2,1.1-0.4,1.6-0.5c3.4-0.9,7.2-0.4,11.1,0c1.9,0.2,3.7,0.4,5.6,0.4c1.8,0,3.6-0.2,5.5-0.4
				c0.5,0.1,1.1,0.3,1.6,0.5c5.6,2.3,8.8,8.5,13,12.8c4.2,4.2,10.4,7.4,12.8,13C489.9,183.2,487.8,189.8,487.8,196z"/>
			<path id="XMLID_2889_" class="st337" d="M463.5,196c0,9.6-6.8,17.5-15.7,19.4c-1.3,0.3-2.7,0.4-4.1,0.4c-11,0-19.9-8.9-19.9-19.9
				c0-11,8.9-19.9,19.9-19.9c1.4,0,2.8,0.1,4.1,0.4C456.8,178.5,463.5,186.4,463.5,196z"/>
			<ellipse id="XMLID_2888_" class="st25" cx="447.8" cy="196" rx="15.7" ry="19.4"/>
		</g>
		<g id="XMLID_3480_">
			<path id="XMLID_3484_" class="st32" d="M293.6,156c0,5.4,1.8,11-0.1,15.7c-2,4.8-7.4,7.6-11,11.2c-3.6,3.6-6.4,9-11.2,11
				c-0.5,0.2-0.9,0.3-1.4,0.5c-2.9,0.8-6.2,0.4-9.5,0c-1.6-0.2-3.2-0.3-4.8-0.3c-1.6,0-3.1,0.2-4.7,0.3c-3.9,0.4-7.7,0.9-11-0.5
				c-4.8-2-7.6-7.4-11.2-11c-3.6-3.6-9-6.4-11-11.2c-1.9-4.7-0.1-10.3-0.1-15.7c0-5.4-1.8-11,0.1-15.7c2-4.8,7.4-7.6,11-11.2
				c3.6-3.6,6.4-9,11.2-11c3.3-1.4,7.1-0.9,11-0.5c1.6,0.2,3.2,0.3,4.7,0.3c1.6,0,3.2-0.2,4.8-0.3c3.3-0.4,6.6-0.8,9.5,0
				c0.5,0.1,0.9,0.3,1.4,0.5c4.8,2,7.6,7.4,11.2,11c3.6,3.6,9,6.4,11,11.2C295.4,145,293.6,150.6,293.6,156z"/>
			<path id="XMLID_3483_" class="st30" d="M293.6,156c0,5.4,1.8,11-0.1,15.7c-2,4.8-7.4,7.6-11,11.2c-3.6,3.6-6.4,9-11.2,11
				c-0.5,0.2-0.9,0.3-1.4,0.5c-1.6-0.2-3.2-0.3-4.7-0.3c-1.6,0-3.2,0.2-4.8,0.3c-3.3,0.4-6.6,0.8-9.5,0c-0.5-0.1-0.9-0.3-1.4-0.5
				c-4.8-2-7.6-7.4-11.2-11c-3.6-3.6-9-6.4-11-11.2c-1.9-4.7-0.1-10.3-0.1-15.7c0-5.4-1.8-11,0.1-15.7c2-4.8,7.4-7.6,11-11.2
				c3.6-3.6,6.4-9,11.2-11c0.5-0.2,0.9-0.3,1.4-0.5c2.9-0.8,6.2-0.4,9.5,0c1.6,0.2,3.2,0.3,4.8,0.3c1.6,0,3.1-0.2,4.7-0.3
				c0.5,0.1,0.9,0.3,1.4,0.5c4.8,2,7.6,7.4,11.2,11c3.6,3.6,9,6.4,11,11.2C295.4,145,293.6,150.6,293.6,156z"/>
			<path id="XMLID_3482_" class="st337" d="M272.6,156c0,8.2-5.8,15.1-13.6,16.8c-1.1,0.2-2.3,0.4-3.5,0.4
				c-9.5,0-17.1-7.7-17.1-17.1s7.7-17.1,17.1-17.1c1.2,0,2.4,0.1,3.5,0.4C266.8,140.9,272.6,147.8,272.6,156z"/>
			<ellipse id="XMLID_3481_" class="st25" cx="259.1" cy="156" rx="13.6" ry="16.8"/>
		</g>
		<path id="XMLID_3382_" class="st14" d="M394.7,247.6l-1.9,0.8l-0.8-1.9c-4.4-10.8-16.8-16-27.6-11.6l-2.4,1
			c-10.8,4.4-16,16.8-11.6,27.6l0.8,1.9l17.1,41.6l41.6-17.1l1.9-0.8c10.8-4.4,16-16.8,11.6-27.6l-1-2.4
			C417.9,248.3,405.5,243.2,394.7,247.6z"/>
		<path id="XMLID_3398_" class="st14" d="M130.2,246.9l-0.6,2l-2-0.6c-11.2-3.5-23.1,2.7-26.6,13.8l-0.8,2.5
			c-3.5,11.2,2.7,23.1,13.8,26.6l2,0.6l42.9,13.5l13.5-42.9l0.6-2c3.5-11.2-2.7-23.1-13.8-26.6l-2.5-0.8
			C145.6,229.6,133.7,235.8,130.2,246.9z"/>
	</g>
</g>
</svg>
